<svg width="17" height="17" viewBox="0 0 17 17" fill="none" xmlns="http://www.w3.org/2000/svg">
<path d="M11.5469 5.29688L13.3438 7.09375C13.4898 7.2369 13.6861 7.31708 13.8906 7.31708C14.0951 7.31708 14.2915 7.2369 14.4375 7.09375L16.0781 5.45312C16.2213 5.30709 16.3015 5.11074 16.3015 4.90625C16.3015 4.70176 16.2213 4.50541 16.0781 4.35938L14.2812 2.5625M15.8438 1L8.34375 8.5M1 11.5469C1 12.1111 1.11114 12.6699 1.32708 13.1912C1.54302 13.7125 1.85952 14.1862 2.25853 14.5852C2.65753 14.9842 3.13121 15.3007 3.65253 15.5167C4.17385 15.7326 4.7326 15.8437 5.29688 15.8438C5.86115 15.8437 6.4199 15.7326 6.94122 15.5167C7.46254 15.3007 7.93622 14.9842 8.33522 14.5852C8.73423 14.1862 9.05073 13.7125 9.26667 13.1912C9.48261 12.6699 9.59375 12.1111 9.59375 11.5469C9.59375 10.9826 9.48261 10.4239 9.26667 9.90253C9.05073 9.38121 8.73423 8.90753 8.33522 8.50853C7.93622 8.10952 7.46254 7.79302 6.94122 7.57708C6.4199 7.36114 5.86115 7.25 5.29688 7.25C4.7326 7.25 4.17385 7.36114 3.65253 7.57708C3.13121 7.79302 2.65753 8.10952 2.25853 8.50853C1.85952 8.90753 1.54302 9.38121 1.32708 9.90253C1.11114 10.4239 1 10.9826 1 11.5469Z" stroke="#DE8135" stroke-linecap="round" stroke-linejoin="round"/>
</svg>
