<svg width="22" height="24" viewBox="0 0 22 24" fill="none" xmlns="http://www.w3.org/2000/svg">
<g clip-path="url(#clip0_2170_32946)">
<path fill-rule="evenodd" clip-rule="evenodd" d="M10.3649 0.163621C10.758 -0.0540928 11.242 -0.0540928 11.6345 0.163621C13.5769 1.23962 19.4219 4.47848 21.3648 5.55447C21.7579 5.77162 21.9999 6.1739 21.9999 6.60933C21.9999 8.76133 21.9999 15.2385 21.9999 17.3905C21.9999 17.8259 21.7579 18.2282 21.3648 18.4459C19.4225 19.5219 13.5774 22.7607 11.6345 23.8367C11.2414 24.0545 10.7574 24.0545 10.3649 23.8367C8.42251 22.7607 2.57747 19.5219 0.634525 18.4459C0.241999 18.2282 0 17.8265 0 17.391C0 15.239 0 8.7619 0 6.6099C0 6.17447 0.241999 5.77219 0.635104 5.55447C2.57689 4.47848 8.42309 1.23962 10.3649 0.163621Z" fill="#004482"/>
<path fill-rule="evenodd" clip-rule="evenodd" d="M0.176 17.9453C0.0219999 17.7419 0 17.5487 0 17.2887C0 15.1493 0 8.7093 0 6.5693C0 6.13616 0.241421 5.73616 0.633367 5.52016C2.56878 4.45044 8.39414 1.23045 10.3296 0.160161C10.7215 -0.0564104 11.2524 -0.051839 11.6443 0.164732C13.5798 1.23445 19.3854 4.42701 21.3208 5.49673C21.4772 5.58359 21.5964 5.68816 21.703 5.82587L0.176 17.9453Z" fill="#659AD2"/>
<path fill-rule="evenodd" clip-rule="evenodd" d="M10.9998 4.00015C15.4733 4.00015 19.105 7.58472 19.105 12.0001C19.105 16.4156 15.4733 20.0001 10.9998 20.0001C6.52626 20.0001 2.89453 16.4156 2.89453 12.0001C2.89453 7.58472 6.52626 4.00015 10.9998 4.00015ZM10.9998 8.00015C13.2362 8.00015 15.0524 9.79215 15.0524 12.0001C15.0524 14.2076 13.2362 16.0001 10.9998 16.0001C8.76331 16.0001 6.94715 14.2076 6.94715 12.0001C6.94715 9.79215 8.76273 8.00015 10.9998 8.00015Z" fill="white"/>
<path fill-rule="evenodd" clip-rule="evenodd" d="M21.7021 5.83157C22.0008 6.10757 21.995 6.52357 21.995 6.851C21.995 9.01957 21.9765 15.1876 22.0003 17.3561C22.0026 17.5824 21.9267 17.8207 21.8133 18.0001L10.7646 12.0001L21.7021 5.83157Z" fill="#00599C"/>
</g>
<defs>
<clipPath id="clip0_2170_32946">
<rect width="22" height="24" fill="white"/>
</clipPath>
</defs>
</svg>
