<svg width="24" height="24" viewBox="0 0 24 24" fill="none" xmlns="http://www.w3.org/2000/svg">
<g clip-path="url(#clip0_2170_32924)">
<path d="M24 0H0V24H24V0Z" fill="#512BD4"/>
<path d="M4.2779 15.3333C4.10821 15.3333 3.96397 15.2768 3.84518 15.1637C3.72639 15.0477 3.66699 14.91 3.66699 14.7505C3.66699 14.5881 3.72639 14.4489 3.84518 14.3329C3.96397 14.2169 4.10821 14.1589 4.2779 14.1589C4.45043 14.1589 4.59609 14.2169 4.71488 14.3329C4.83649 14.4489 4.8973 14.5881 4.8973 14.7505C4.8973 14.91 4.83649 15.0477 4.71488 15.1637C4.59609 15.2768 4.45043 15.3333 4.2779 15.3333Z" fill="white"/>
<path d="M11.0612 15.2376H9.95813L7.05208 10.6529C6.97855 10.5369 6.91771 10.4166 6.86966 10.2919H6.84419C6.86682 10.4253 6.87813 10.7109 6.87813 11.1488V15.2376H5.90234V9H7.0775L9.88603 13.4759C10.0048 13.6616 10.0812 13.7892 10.1151 13.8587H10.1321C10.1038 13.6935 10.0897 13.4136 10.0897 13.0192V9H11.0612V15.2376Z" fill="white"/>
<path d="M15.8126 15.2376H12.3975V9H15.6769V9.87868H13.4072V11.6447H15.4987V12.519H13.4072V14.3633H15.8126V15.2376Z" fill="white"/>
<path d="M20.6663 9.87868H18.9184V15.2376H17.9087V9.87868H16.165V9H20.6663V9.87868Z" fill="white"/>
</g>
<defs>
<clipPath id="clip0_2170_32924">
<rect width="24" height="24" fill="white"/>
</clipPath>
</defs>
</svg>
