<svg width="24" height="24" viewBox="0 0 24 24" fill="none" xmlns="http://www.w3.org/2000/svg">
<g clip-path="url(#clip0_2198_33157)">
<path d="M20.4 0H3.6C1.61177 0 0 1.61177 0 3.6V20.4C0 22.3882 1.61177 24 3.6 24H20.4C22.3882 24 24 22.3882 24 20.4V3.6C24 1.61177 22.3882 0 20.4 0Z" fill="#0C0D0E"/>
<path d="M12.8428 11.0156C13.6865 12 12.6084 12.8906 12.6084 12.8906C12.6084 12.8906 14.8115 11.7656 13.7803 10.3594C12.749 8.95312 12.1397 8.39062 16.0303 6.14062C16.0303 6.09375 9.88966 7.64062 12.8428 11.0156ZM13.7803 2.48438C13.7803 2.48438 15.6553 4.35938 11.999 7.17188C9.09278 9.46875 11.3428 10.7812 11.999 12.2812C10.3115 10.7344 9.04591 9.42188 9.88966 8.15625C11.1553 6.28125 14.5303 5.39062 13.7803 2.48438Z" fill="#F8981D"/>
<path d="M9.65601 16.2657C9.65601 16.2657 8.95288 16.6407 10.1248 16.7813C11.2966 16.9219 12.281 16.9219 13.8279 16.6407C14.1421 16.8245 14.4714 16.9813 14.8123 17.1094C11.3435 18.6094 6.89038 17.0625 9.65601 16.2657ZM9.23413 14.2969C9.23413 14.2969 8.48413 14.8594 9.65601 15C10.8279 15.1407 12.3748 15.1875 14.4373 14.7657C14.6513 14.9731 14.9069 15.1329 15.1873 15.2344C10.9216 16.4532 6.18726 15.3282 9.23413 14.2969ZM17.4373 17.7188C17.4373 17.7188 17.9529 18.1407 16.8748 18.4688C14.8591 19.0782 8.48413 19.2657 6.70288 18.5157C6.04663 18.2344 7.40601 17.7188 8.24976 17.7188C7.45288 17.25 3.65601 18.7032 6.28101 19.125C13.4529 20.25 19.3123 18.5625 17.4373 17.7188ZM9.98413 12.2813C9.98413 12.2813 6.74976 13.0313 8.81226 13.3125C9.70288 13.4532 11.4841 13.4063 13.1248 13.2657C14.7654 13.125 15.7966 12.8907 15.7966 12.8907C15.5203 13.0101 15.2539 13.1511 14.9998 13.3125C11.7185 14.1563 5.34351 13.7813 7.17163 12.8907C8.99976 12 9.98413 12.2813 9.98413 12.2813ZM15.7966 15.5157C19.2185 13.7813 17.6248 11.7657 16.1248 12.4219C17.8123 11.0157 20.8591 14.1094 15.7029 15.6094V15.5157M10.3123 20.25C13.5466 20.4375 18.4685 20.1563 18.5623 18.6094C18.5623 18.6094 18.3279 19.1719 15.8904 19.6407C13.4529 20.1094 9.74976 20.1094 7.73413 19.7813C7.78101 19.7813 8.20288 20.1094 10.3123 20.25Z" fill="#5382A1"/>
</g>
<defs>
<clipPath id="clip0_2198_33157">
<rect width="24" height="24" fill="white"/>
</clipPath>
</defs>
</svg>
