<svg width="24" height="24" viewBox="0 0 24 24" fill="none" xmlns="http://www.w3.org/2000/svg">
<rect width="24" height="24" rx="5" fill="#ACADAE"/>
<path d="M12.0277 7.74785C15.7335 4.87091 13.8315 3 13.8315 3C14.1146 5.97415 10.7695 6.6764 9.87283 8.72017C9.261 10.1148 10.2918 11.3359 12.0264 12.8749C11.8731 12.534 11.6366 12.2028 11.3972 11.8675C10.5805 10.7239 9.72973 9.53242 12.0277 7.74785Z" fill="#191A1E"/>
<path d="M12.6189 13.5059C12.6189 13.5059 13.7337 12.6064 12.8508 11.6068C9.8579 8.21553 16.1243 6.67651 16.1243 6.67651C12.2984 8.51964 12.8695 9.61365 13.8312 10.9427C14.8608 12.3679 12.6189 13.5059 12.6189 13.5059Z" fill="#191A1E"/>
<path d="M15.903 16.1882C19.3372 14.4333 17.7494 12.7469 16.6411 12.9741C16.3694 13.0297 16.2483 13.0779 16.2483 13.0779C16.2483 13.0779 16.3492 12.9225 16.5418 12.8552C18.7343 12.0973 20.4206 15.0909 15.834 16.2766C15.834 16.2766 15.8871 16.2299 15.903 16.1882Z" fill="#191A1E"/>
<path d="M8.75676 13.9669C6.60808 13.6848 9.93492 12.9077 9.93492 12.9077C9.93492 12.9077 8.64297 12.822 7.05403 13.5773C5.17519 14.4711 11.7015 14.8775 15.0798 14.0038C15.431 13.7679 15.9165 13.5635 15.9165 13.5635C15.9165 13.5635 14.534 13.8063 13.1573 13.9206C11.4726 14.0593 9.66402 14.0864 8.75676 13.9669Z" fill="#191A1E"/>
<path d="M9.57266 15.6427C8.37444 15.5208 9.159 14.9497 9.159 14.9497C6.05849 15.9616 10.8841 17.1092 15.2165 15.8634C14.756 15.7037 14.4631 15.4117 14.4631 15.4117C12.3457 15.8127 11.1221 15.7999 9.57266 15.6427Z" fill="#191A1E"/>
<path d="M10.0965 17.4557C8.89919 17.3204 9.59866 16.9204 9.59866 16.9204C6.78415 17.6937 11.3106 19.2914 14.8939 17.7812C14.307 17.5568 13.8868 17.2977 13.8868 17.2977C12.2883 17.5951 11.5469 17.6185 10.0965 17.4557Z" fill="#191A1E"/>
<path d="M17.5905 18.3781C17.5905 18.3781 18.1081 18.7975 17.0204 19.1219C14.9521 19.7381 8.41177 19.9242 6.5949 19.1465C5.94179 18.8671 7.16657 18.4794 7.55183 18.398C7.95363 18.3123 8.18325 18.3283 8.18325 18.3283C7.45691 17.8251 3.48853 19.3163 6.1675 19.7433C13.4735 20.9084 19.4856 19.2186 17.5905 18.3781Z" fill="#191A1E"/>
<path d="M18.7497 19.2944C18.6298 20.8283 13.5678 21.1509 10.2714 20.9434C8.12089 20.8078 7.6899 20.4689 7.68359 20.4639C9.74178 20.7976 13.2118 20.8584 16.0254 20.3376C18.5192 19.8759 18.7497 19.2944 18.7497 19.2944Z" fill="#191A1E"/>
</svg>
