<svg width="24" height="24" viewBox="0 0 24 24" fill="none" xmlns="http://www.w3.org/2000/svg">
<g clip-path="url(#clip0_2170_32913)">
<path d="M20.4 0H3.6C1.61177 0 0 1.61177 0 3.6V20.4C0 22.3882 1.61177 24 3.6 24H20.4C22.3882 24 24 22.3882 24 20.4V3.6C24 1.61177 22.3882 0 20.4 0Z" fill="white"/>
<path d="M12.8438 11.0156C13.6875 12 12.6094 12.8906 12.6094 12.8906C12.6094 12.8906 14.8125 11.7656 13.7813 10.3594C12.75 8.95312 12.1406 8.39062 16.0313 6.14062C16.0313 6.09375 9.89064 7.64062 12.8438 11.0156ZM13.7813 2.48438C13.7813 2.48438 15.6563 4.35938 12 7.17188C9.09376 9.46875 11.3438 10.7812 12 12.2812C10.3125 10.7344 9.04689 9.42188 9.89064 8.15625C11.1563 6.28125 14.5313 5.39062 13.7813 2.48438Z" fill="#F8981D"/>
<path d="M9.65601 16.2656C9.65601 16.2656 8.95288 16.6406 10.1248 16.7812C11.2966 16.9219 12.281 16.9219 13.8279 16.6406C14.1421 16.8245 14.4714 16.9813 14.8123 17.1094C11.3435 18.6094 6.89038 17.0625 9.65601 16.2656ZM9.23413 14.2969C9.23413 14.2969 8.48413 14.8594 9.65601 15C10.8279 15.1406 12.3748 15.1875 14.4373 14.7656C14.6513 14.9731 14.9069 15.1329 15.1873 15.2344C10.9216 16.4531 6.18726 15.3281 9.23413 14.2969ZM17.4373 17.7187C17.4373 17.7187 17.9529 18.1406 16.8748 18.4687C14.8591 19.0781 8.48413 19.2656 6.70288 18.5156C6.04663 18.2344 7.40601 17.7187 8.24976 17.7187C7.45288 17.25 3.65601 18.7031 6.28101 19.125C13.4529 20.25 19.3123 18.5625 17.4373 17.7187ZM9.98413 12.2812C9.98413 12.2812 6.74976 13.0312 8.81226 13.3125C9.70288 13.4531 11.4841 13.4062 13.1248 13.2656C14.7654 13.125 15.7966 12.8906 15.7966 12.8906C15.5203 13.0101 15.2539 13.1511 14.9998 13.3125C11.7185 14.1562 5.34351 13.7812 7.17163 12.8906C8.99976 12 9.98413 12.2812 9.98413 12.2812ZM15.7966 15.5156C19.2185 13.7812 17.6248 11.7656 16.1248 12.4219C17.8123 11.0156 20.8591 14.1094 15.7029 15.6094V15.5156M10.3123 20.25C13.5466 20.4375 18.4685 20.1562 18.5623 18.6094C18.5623 18.6094 18.3279 19.1719 15.8904 19.6406C13.4529 20.1094 9.74976 20.1094 7.73413 19.7812C7.78101 19.7812 8.20288 20.1094 10.3123 20.25Z" fill="#5382A1"/>
</g>
<defs>
<clipPath id="clip0_2170_32913">
<rect width="24" height="24" fill="white"/>
</clipPath>
</defs>
</svg>
