<svg width="21" height="24" viewBox="0 0 21 24" fill="none" xmlns="http://www.w3.org/2000/svg">
<g clip-path="url(#clip0_2170_32847)">
<path d="M10.5373 23.85C10.2175 23.85 9.9191 23.7636 9.64167 23.6124L6.80519 21.9066C6.37868 21.669 6.59193 21.5826 6.71971 21.5394C7.29558 21.345 7.40236 21.3018 7.99952 20.9562C8.06341 20.913 8.1486 20.9346 8.21248 20.9778L10.3882 22.2951C10.4734 22.3383 10.5802 22.3383 10.644 22.2951L19.1535 17.3067C19.239 17.2635 19.2816 17.1774 19.2816 17.0694V7.11422C19.2816 7.00622 19.239 6.91982 19.1538 6.87662L10.644 1.90982C10.5589 1.86662 10.4518 1.86662 10.3882 1.90982L1.87847 6.87662C1.79269 6.91982 1.7501 7.02782 1.7501 7.11422V17.0694C1.7501 17.1555 1.79299 17.2635 1.87817 17.3067L4.20296 18.6672C5.46119 19.3152 6.25031 18.5592 6.25031 17.8035V7.97792C6.25031 7.84832 6.35679 7.71872 6.50616 7.71872H7.59402C7.72179 7.71872 7.84986 7.82672 7.84986 7.97792V17.8035C7.84986 19.5096 6.93296 20.5029 5.33312 20.5029C4.84272 20.5029 4.45881 20.5029 3.37124 19.9629L1.13164 18.6672C0.859331 18.5071 0.63329 18.2772 0.476159 18.0006C0.319027 17.7239 0.236322 17.4103 0.236328 17.091V7.13582C0.2363 6.81648 0.319025 6.50274 0.476213 6.22605C0.6334 5.94936 0.859529 5.71943 1.13193 5.55932L9.64137 0.570916C10.1749 0.268516 10.8999 0.268516 11.4332 0.570916L19.9426 5.55932C20.2151 5.71939 20.4413 5.9493 20.5985 6.226C20.7557 6.50269 20.8385 6.81645 20.8385 7.13582V17.091C20.8385 17.4103 20.7557 17.724 20.5984 18.0007C20.4412 18.2773 20.215 18.5072 19.9426 18.6672L11.4332 23.6556C11.1773 23.7636 10.8573 23.85 10.5373 23.85Z" fill="#5FA04E"/>
<path d="M13.1819 17.0046C9.44918 17.0046 8.68164 15.2769 8.68164 13.8084C8.68164 13.6788 8.78812 13.5492 8.93749 13.5492H10.0466C10.1747 13.5492 10.2812 13.6356 10.2812 13.7652C10.4519 14.9097 10.9422 15.4713 13.2031 15.4713C14.9947 15.4713 15.7622 15.0609 15.7622 14.0892C15.7622 13.5279 15.5492 13.1172 12.755 12.8367C10.4303 12.5991 8.98037 12.0807 8.98037 10.2021C8.98037 8.45313 10.4306 7.41663 12.8618 7.41663C15.5918 7.41663 16.9352 8.36673 17.1062 10.4397C17.1062 10.5045 17.0846 10.5693 17.042 10.6341C16.9994 10.6773 16.9355 10.7205 16.8713 10.7205H15.7409C15.6862 10.7187 15.6336 10.6987 15.5912 10.6635C15.5488 10.6284 15.519 10.5801 15.5063 10.5261C15.2505 9.33813 14.5894 8.94963 12.8405 8.94963C10.8784 8.94963 10.6438 9.64083 10.6438 10.1589C10.6438 10.7853 10.921 10.9797 13.5658 11.325C16.189 11.6706 17.4256 12.1674 17.4256 14.0244C17.4256 15.9249 15.869 17.0046 13.1819 17.0046Z" fill="#5FA04E"/>
</g>
<defs>
<clipPath id="clip0_2170_32847">
<rect width="21" height="24" fill="white"/>
</clipPath>
</defs>
</svg>
