<svg width="24" height="24" viewBox="0 0 24 24" fill="none" xmlns="http://www.w3.org/2000/svg">
<path d="M12 22.5C17.799 22.5 22.5 17.799 22.5 12C22.5 6.20101 17.799 1.5 12 1.5C6.20101 1.5 1.5 6.20101 1.5 12C1.5 17.799 6.20101 22.5 12 22.5Z" fill="#8892BF"/>
<path d="M10.8285 7.5H12.0885L11.7324 9.39315H12.8646C13.4855 9.40643 13.948 9.54517 14.2525 9.80947C14.5629 10.0737 14.6542 10.5761 14.5264 11.3161L13.9147 14.6167H12.6364L13.2207 11.4647C13.2815 11.1343 13.2633 10.8997 13.1659 10.761C13.0686 10.6222 12.8586 10.5529 12.5359 10.5529L11.5224 10.543L10.7737 14.6167H9.51367L10.8285 7.5Z" fill="white"/>
<path fill-rule="evenodd" clip-rule="evenodd" d="M5.05569 9.39319H7.5027C8.2209 9.39971 8.7414 9.62449 9.06405 10.0671C9.3867 10.5099 9.4932 11.1144 9.38363 11.881C9.3411 12.2313 9.24667 12.5748 9.10057 12.9119C8.96055 13.2489 8.76585 13.5528 8.51625 13.8237C8.21182 14.1673 7.88618 14.3853 7.53923 14.478C7.19227 14.5705 6.83307 14.6167 6.46181 14.6167H5.36613L5.01917 16.5H3.75L5.05569 9.39319ZM5.57614 13.4967L6.12215 10.533H6.30659C6.37361 10.533 6.44355 10.5297 6.5166 10.5231C7.00363 10.5165 7.4083 10.5661 7.731 10.6718C8.05965 10.7775 8.16922 11.1773 8.05965 11.8711C7.92585 12.6972 7.66395 13.1795 7.27444 13.3182C6.88492 13.4505 6.3979 13.5132 5.81353 13.5066H5.6857C5.64918 13.5066 5.61266 13.5032 5.57614 13.4967Z" fill="white"/>
<path fill-rule="evenodd" clip-rule="evenodd" d="M18.3269 9.39319H15.8799L14.5742 16.5H15.8434L16.1904 14.6167H17.2861C17.6573 14.6167 18.0165 14.5705 18.3634 14.478C18.7105 14.3853 19.036 14.1673 19.3405 13.8237C19.5901 13.5528 19.7848 13.2489 19.9248 12.9119C20.0709 12.5748 20.1653 12.2313 20.2078 11.881C20.3174 11.1144 20.211 10.5099 19.8883 10.0671C19.5656 9.62449 19.0452 9.39971 18.3269 9.39319ZM16.9464 10.533L16.4004 13.4967C16.4369 13.5032 16.4734 13.5066 16.51 13.5066H16.6378C17.2222 13.5132 17.7091 13.4505 18.0987 13.3182C18.4882 13.1795 18.7501 12.6972 18.8839 11.8711C18.9935 11.1773 18.8839 10.7775 18.5552 10.6718C18.2326 10.5661 17.8279 10.5165 17.3408 10.5231C17.2678 10.5297 17.1979 10.533 17.1308 10.533H16.9464Z" fill="white"/>
</svg>
