<svg width="24" height="24" viewBox="0 0 24 24" fill="none" xmlns="http://www.w3.org/2000/svg">
<g clip-path="url(#clip0_2170_32939)">
<path d="M20.4 0H3.6C1.61177 0 0 1.61177 0 3.6V20.4C0 22.3882 1.61177 24 3.6 24H20.4C22.3882 24 24 22.3882 24 20.4V3.6C24 1.61177 22.3882 0 20.4 0Z" fill="#777BB3"/>
<path d="M7.26563 9.46876H4.54688C4.51644 9.46704 4.48627 9.47525 4.46091 9.49215C4.43554 9.50906 4.41636 9.53376 4.40625 9.56251L3.14062 16.1719C3.14062 16.3125 3.28125 16.3125 3.28125 16.3125H4.6875C4.82813 16.3125 4.82813 16.2188 4.82813 16.2188L5.15625 14.5781H6.42188C8.39063 14.5781 9.375 13.2656 9.60938 12.0938C9.84375 10.9219 9.65625 9.46876 7.26563 9.46876ZM7.875 12C7.6875 12.8906 7.07813 13.2656 6.23438 13.2656H5.39063L5.90625 10.7813H6.75C8.01563 10.7813 7.96875 11.25 7.875 12Z" fill="black" stroke="white" stroke-width="0.3"/>
<path d="M12.8906 14.5781C12.7031 14.5781 12.75 14.3906 12.75 14.3906L13.3125 11.5312C13.3125 11.1562 13.5937 10.7812 12.4687 10.8281H11.625L10.9219 14.4844C10.9219 14.4844 10.9219 14.625 10.7344 14.625H9.375C9.23438 14.625 9.23438 14.4844 9.23438 14.4844L10.5469 7.875C10.5469 7.875 10.5469 7.78125 10.7344 7.78125H12.1406C12.2812 7.78125 12.2344 7.92188 12.2344 7.92188L11.9062 9.51562H13.125C14.8125 9.51562 15.2344 10.3125 15.0937 11.25L14.4844 14.4844C14.4844 14.4844 14.4844 14.625 14.25 14.625L12.8906 14.5781Z" fill="black" stroke="white" stroke-width="0.3"/>
<path d="M18.4688 9.46876H15.75C15.7196 9.46704 15.6894 9.47525 15.664 9.49215C15.6387 9.50906 15.6195 9.53376 15.6094 9.56251L14.3438 16.1719C14.3438 16.3125 14.4844 16.3125 14.4844 16.3125H15.8906C16.0313 16.3125 16.0313 16.2188 16.0313 16.2188L16.3594 14.5781H17.625C19.5938 14.5781 20.5781 13.2656 20.8125 12.0938C21.0469 10.9219 20.8594 9.46876 18.4688 9.46876ZM19.0781 12C18.8906 12.8906 18.2813 13.2656 17.4375 13.2656H16.5938L17.1094 10.7813H17.9531C19.2188 10.7813 19.1719 11.25 19.0781 12Z" fill="black" stroke="white" stroke-width="0.3"/>
</g>
<defs>
<clipPath id="clip0_2170_32939">
<rect width="24" height="24" fill="white"/>
</clipPath>
</defs>
</svg>
