<svg width="20" height="24" viewBox="0 0 20 24" fill="none" xmlns="http://www.w3.org/2000/svg">
<g clip-path="url(#clip0_2170_32905)">
<path d="M9.88091 0.000163829C9.05623 0.00395947 8.26867 0.0736276 7.57571 0.195088C5.53431 0.552322 5.16367 1.30004 5.16367 2.67897V4.50012H9.98774V5.10716H5.16367H3.35324C1.95123 5.10716 0.723593 5.94188 0.339603 7.52979C-0.103325 9.3499 -0.122971 10.4857 0.339603 12.3862C0.682515 13.8008 1.50144 14.8088 2.90344 14.8088H4.56207V12.6256C4.56207 11.0485 5.93973 9.65724 7.57571 9.65724H12.3942C13.7354 9.65724 14.8062 8.56332 14.8062 7.22905V2.67897C14.8062 1.38399 13.7033 0.411214 12.3942 0.195088C11.5654 0.0584448 10.7056 -0.00363187 9.88091 0.000163829ZM7.27209 1.46488C7.77039 1.46488 8.17731 1.87453 8.17731 2.37823C8.17731 2.88015 7.77039 3.28602 7.27209 3.28602C6.77201 3.28602 6.36688 2.88015 6.36688 2.37823C6.36688 1.87453 6.77201 1.46488 7.27209 1.46488Z" fill="url(#paint0_linear_2170_32905)"/>
<path d="M15.4082 5.10718V7.22906C15.4082 8.87413 14.0002 10.2587 12.3945 10.2587H7.5761C6.25624 10.2587 5.16406 11.3777 5.16406 12.6869V17.237C5.16406 18.532 6.30089 19.2937 7.5761 19.6652C9.10313 20.1099 10.5675 20.1903 12.3945 19.6652C13.609 19.3169 14.8066 18.6159 14.8066 17.237V15.4159H9.98813V14.8088H14.8066H17.2186C18.6206 14.8088 19.1431 13.8401 19.6306 12.3862C20.1343 10.8894 20.1129 9.44994 19.6306 7.5298C19.2842 6.1473 18.6224 5.10718 17.2186 5.10718H15.4082ZM12.6982 16.6299C13.1982 16.63 13.6034 17.0358 13.6034 17.5377C13.6034 18.0414 13.1982 18.4511 12.6982 18.4511C12.1999 18.4511 11.7929 18.0414 11.7929 17.5377C11.7929 17.0358 12.1999 16.6299 12.6982 16.6299Z" fill="url(#paint1_linear_2170_32905)"/>
<path opacity="0.44382" d="M10.0428 24C13.6131 24 16.5074 23.4441 16.5074 22.7583C16.5074 22.0726 13.6131 21.5166 10.0428 21.5166C6.47245 21.5166 3.57812 22.0726 3.57812 22.7583C3.57812 23.4441 6.47245 24 10.0428 24Z" fill="url(#paint2_radial_2170_32905)"/>
</g>
<defs>
<linearGradient id="paint0_linear_2170_32905" x1="-6.00979e-08" y1="-5.17113e-08" x2="11.0346" y2="9.49289" gradientUnits="userSpaceOnUse">
<stop stop-color="#5A9FD4"/>
<stop offset="1" stop-color="#306998"/>
</linearGradient>
<linearGradient id="paint1_linear_2170_32905" x1="12.5822" y1="17.3846" x2="8.64157" y2="11.8098" gradientUnits="userSpaceOnUse">
<stop stop-color="#FFD43B"/>
<stop offset="1" stop-color="#FFE873"/>
</linearGradient>
<radialGradient id="paint2_radial_2170_32905" cx="0" cy="0" r="1" gradientUnits="userSpaceOnUse" gradientTransform="translate(10.0428 22.7583) rotate(-90) scale(1.24169 5.50988)">
<stop stop-color="#B8B8B8" stop-opacity="0.498039"/>
<stop offset="1" stop-color="#7F7F7F" stop-opacity="0"/>
</radialGradient>
<clipPath id="clip0_2170_32905">
<rect width="20" height="24" fill="white"/>
</clipPath>
</defs>
</svg>
