<svg width="24" height="24" viewBox="0 0 24 24" fill="none" xmlns="http://www.w3.org/2000/svg">
<path d="M19.8194 9.03092C19.8986 8.95248 20.0075 8.90365 20.1275 8.90365C20.3684 8.90365 20.5637 9.09895 20.5637 9.33987C20.5637 9.58079 20.3684 9.77609 20.1275 9.77609C19.8866 9.77609 19.6914 9.58079 19.6914 9.33987C19.6914 9.21981 19.7402 9.11096 19.8186 9.03172L19.8194 9.03092ZM11.4798 2.31956C11.6103 2.18269 11.7935 2.09705 11.9976 2.09705C12.3921 2.09705 12.7114 2.41641 12.7114 2.81101C12.7114 3.2056 12.3921 3.52496 11.9976 3.52496C11.6671 3.52496 11.3894 3.30085 11.3078 2.9959L11.307 2.9911C11.2926 2.93667 11.2838 2.87504 11.2838 2.81101C11.2838 2.62051 11.3582 2.44762 11.4798 2.31956ZM20.7813 11.9204C20.7813 12.1389 20.7733 12.3566 20.7573 12.5719H19.857C19.7674 12.5719 19.7306 12.6303 19.7306 12.72V13.133C19.7306 14.1063 19.1816 14.3176 18.7006 14.3712C18.2429 14.4232 17.7355 14.1799 17.6731 13.8998C17.6019 12.8872 17.0545 12.0164 16.255 11.5034L16.243 11.4961C17.2081 11.0215 17.8932 10.1067 18.0404 9.02051L18.042 9.0037C18.0028 8.02001 17.4658 7.17079 16.6776 6.69535L16.6648 6.68814C16.131 6.33757 15.4868 6.11266 14.7929 6.06943L14.7817 6.06863H5.47462C6.73024 4.66873 8.41801 3.67784 10.3266 3.30725L10.3819 3.29845L11.479 4.44942C11.5975 4.57349 11.7639 4.65113 11.9488 4.65113C12.1232 4.65113 12.2809 4.58229 12.3977 4.47024L13.6245 3.29605C16.2118 3.7939 18.3565 5.37149 19.6065 7.53097L19.6289 7.57339L18.7887 9.47194C18.7535 9.54957 18.7334 9.64002 18.7334 9.73527C18.7334 9.9986 18.8895 10.2259 19.1152 10.3292L19.1192 10.3308L20.7373 11.0495C20.7653 11.3369 20.7797 11.6266 20.7797 11.9212L20.7813 11.9204ZM10.0233 10.434V8.78279H12.9835C13.1364 8.78279 14.0631 8.95968 14.0631 9.65283C14.0631 10.2283 13.3525 10.4348 12.7683 10.4348L10.0233 10.434ZM3.2883 10.9775L4.82321 10.2947C5.05288 10.1907 5.20974 9.96418 5.20974 9.70085C5.20974 9.6048 5.18893 9.51436 5.15212 9.43272L5.15372 9.43672L4.83761 8.72196H6.08123V14.3256H3.57319C3.36032 13.606 3.23868 12.78 3.23868 11.9244C3.23868 11.5906 3.25709 11.2608 3.2939 10.9367L3.2899 10.9767L3.2883 10.9775ZM4.12377 8.9957C4.12377 8.75958 3.93251 8.56828 3.69643 8.56828C3.46035 8.56828 3.26909 8.75958 3.26909 8.9957C3.26909 9.23182 3.46035 9.42311 3.69643 9.42311C3.93251 9.42311 4.12377 9.23182 4.12377 8.9957ZM6.84308 20.0252C6.79427 20.0372 6.73905 20.0436 6.68143 20.0436C6.2869 20.0436 5.96759 19.7243 5.96759 19.3297C5.96759 18.9351 6.2869 18.6157 6.68143 18.6157C7.07596 18.6157 7.39527 18.9351 7.39527 19.3297C7.39527 19.4065 7.38326 19.4809 7.36085 19.5506L7.36245 19.5458C7.28483 19.7859 7.09036 19.9668 6.84788 20.0252H6.84308ZM16.7576 17.7449C16.7168 17.7353 16.6696 17.7305 16.6207 17.7305C16.3102 17.7305 16.0502 17.949 15.9869 18.2411L15.9861 18.2451L15.6284 19.914C14.5649 20.4062 13.3204 20.6935 12.0088 20.6935C10.6684 20.6935 9.39753 20.3934 8.26035 19.8563L8.31397 19.8787L7.95625 18.2099C7.89223 17.9146 7.63294 17.696 7.32244 17.696C7.27362 17.696 7.22641 17.7017 7.18079 17.7113L7.1848 17.7105L5.7115 18.0266C5.44582 17.7537 5.19613 17.4607 4.96646 17.1518L4.94965 17.1286H12.1176C12.1985 17.1286 12.2529 17.1142 12.2529 17.0405V14.5041C12.2529 14.4304 12.1993 14.416 12.1176 14.416H10.0209V12.808H12.2889C12.9939 12.8152 13.5749 13.3331 13.6822 14.0086L13.683 14.0166C13.7734 14.3696 13.9703 15.5214 14.1063 15.8895C14.2407 16.3026 14.7897 17.1278 15.3747 17.1278H18.9463C18.9927 17.127 19.0375 17.1222 19.0808 17.1142L19.076 17.115C18.8151 17.4671 18.5494 17.7777 18.2629 18.069L18.2637 18.0682L16.7576 17.7449ZM17.1001 20.0596C18.0044 20.0596 18.7374 19.3257 18.7374 18.4212C18.7374 17.5168 18.0044 16.7828 17.0993 16.7828C16.1942 16.7828 15.4612 17.516 15.4612 18.4212C15.4612 19.3257 16.1942 20.0588 17.0985 20.0596H17.1001ZM23.8415 11.7027L22.834 11.0791C22.8255 10.981 22.8161 10.883 22.806 10.7854L23.6719 9.97859C23.7391 9.91536 23.7807 9.82491 23.7807 9.72566C23.7807 9.57839 23.6887 9.45193 23.5591 9.4007L23.5567 9.3999L22.4499 8.98609C22.4227 8.89058 22.3936 8.79533 22.3627 8.70035L23.0533 7.74147C23.0941 7.68544 23.1189 7.61501 23.1189 7.53897C23.1189 7.36688 22.9941 7.22441 22.83 7.1972H22.8276L21.6608 7.0075C21.6155 6.91946 21.5685 6.83195 21.52 6.74497L22.0097 5.66843C22.0297 5.62601 22.0409 5.57719 22.0409 5.52436C22.0409 5.45233 22.0193 5.38589 21.9809 5.33067L21.9817 5.33147C21.9185 5.23782 21.8121 5.17699 21.692 5.17699C21.688 5.17699 21.684 5.17699 21.68 5.17699H21.6808L20.4964 5.21861C20.4356 5.14177 20.3732 5.06627 20.3092 4.9921L20.5813 3.83872C20.5869 3.81471 20.5901 3.78749 20.5901 3.75948C20.5901 3.56738 20.4348 3.41211 20.2427 3.41211C20.2147 3.41211 20.1875 3.41531 20.1611 3.42171L20.1635 3.42091L19.0103 3.69305C18.9351 3.62955 18.8591 3.56712 18.7823 3.50575L18.8239 2.32116C18.8239 2.31636 18.8239 2.31076 18.8239 2.30435C18.8239 2.11386 18.6694 1.96018 18.4798 1.96018C18.4269 1.96018 18.3765 1.97219 18.3317 1.9938L18.3341 1.993L17.2578 2.48444C17.1705 2.43722 17.0833 2.38919 16.9953 2.34357L16.8048 1.17579C16.776 1.01011 16.6327 0.886043 16.4615 0.886043C16.3863 0.886043 16.3158 0.910055 16.259 0.950876L16.2598 0.950075L15.3003 1.64082C15.2059 1.61041 15.1106 1.58186 15.0146 1.55518L14.6009 0.448224C14.5497 0.316158 14.4232 0.224112 14.2752 0.224112C14.1759 0.224112 14.0863 0.265733 14.0223 0.332966L13.2156 1.1998C13.118 1.18859 13.0201 1.17926 12.9219 1.17179L12.2985 0.164082C12.2361 0.0648325 12.128 0 12.004 0C11.88 0 11.7711 0.0648324 11.7103 0.163282L11.7095 0.164882L11.0861 1.17259C10.9879 1.18112 10.89 1.19046 10.7924 1.2006L9.98413 0.333767C9.92091 0.265733 9.83048 0.223312 9.73044 0.223312C9.58239 0.223312 9.45595 0.316158 9.40634 0.446623L9.40554 0.449025L8.9918 1.55598C8.89577 1.58319 8.80133 1.61281 8.7061 1.64162L7.74738 0.950876C7.69136 0.910855 7.62174 0.886843 7.54572 0.886843C7.37366 0.886843 7.23121 1.01091 7.2024 1.17499V1.17739L7.01194 2.34517C6.92391 2.39053 6.83641 2.43749 6.74945 2.48604L5.67309 1.9946C5.63068 1.97459 5.58106 1.96338 5.52904 1.96338C5.33778 1.96338 5.18253 2.11866 5.18253 2.30996C5.18253 2.31476 5.18253 2.31956 5.18253 2.32356L5.22414 3.50735C5.14732 3.56818 5.07129 3.63062 4.99607 3.69465L3.84288 3.42171C3.81887 3.41611 3.79166 3.41291 3.76365 3.41291C3.57159 3.41291 3.41634 3.56818 3.41634 3.76028C3.41634 3.78829 3.41954 3.81551 3.42594 3.84192L3.42514 3.83952L3.69643 4.9929C3.63401 5.06813 3.57079 5.14417 3.50997 5.21941L2.32558 5.17779C2.32157 5.17779 2.31677 5.17779 2.31197 5.17779C2.12071 5.17779 1.96546 5.33307 1.96546 5.52436C1.96546 5.57639 1.97666 5.62601 1.99747 5.67084L1.99667 5.66843L2.48803 6.74497C2.43948 6.83142 2.39253 6.91893 2.34718 7.0075L1.18119 7.1972C1.01554 7.22601 0.891497 7.36848 0.891497 7.54057C0.891497 7.61581 0.915505 7.68624 0.956319 7.74307L0.955518 7.74227L1.64615 8.70115C1.61627 8.79613 1.5872 8.89138 1.55892 8.98689L0.452151 9.4007C0.320107 9.45193 0.228076 9.57839 0.228076 9.72646C0.228076 9.82571 0.26969 9.91536 0.336112 9.97939L1.202 10.7862C1.1908 10.8838 1.18146 10.9818 1.17399 11.0799L0.166456 11.7035C0.0664222 11.7651 0 11.8739 0 11.998C0 12.1221 0.0656219 12.2317 0.164855 12.2917L0.166456 12.2925L1.17399 12.9161C1.18199 13.0145 1.1924 13.1122 1.202 13.2098L0.336112 14.0182C0.268089 14.0814 0.225675 14.1719 0.225675 14.2719C0.225675 14.42 0.318506 14.5465 0.44895 14.5961L0.45135 14.5969L1.55812 15.0107C1.58533 15.1068 1.61494 15.202 1.64535 15.2964L0.954718 16.2553C0.913104 16.3114 0.888296 16.3826 0.888296 16.4586C0.888296 16.6307 1.01474 16.774 1.17959 16.7996H1.18119L2.34718 16.9893C2.3928 17.0773 2.43921 17.1646 2.48803 17.2518L1.99667 18.3284C1.97666 18.3708 1.96546 18.4204 1.96546 18.4724C1.96546 18.6637 2.12071 18.819 2.31197 18.819C2.31677 18.819 2.32157 18.819 2.32558 18.819H2.32477L3.50837 18.7774C3.56999 18.8542 3.63161 18.9303 3.69563 19.0055L3.42434 20.1597C3.41874 20.1837 3.41554 20.2109 3.41554 20.2389C3.41554 20.4302 3.57079 20.5855 3.76205 20.5855C3.79086 20.5855 3.81807 20.5823 3.84448 20.5759L3.84208 20.5767L4.99526 20.3054C5.07049 20.3694 5.14652 20.431 5.22334 20.4918L5.18173 21.6764C5.18173 21.6812 5.18173 21.686 5.18173 21.6916C5.18173 21.8821 5.33618 22.0358 5.52584 22.0358C5.57866 22.0358 5.62908 22.0238 5.67389 22.0022L5.67149 22.003L6.74785 21.5132C6.83508 21.562 6.92231 21.6084 7.01034 21.654L7.2008 22.8202C7.22961 22.9859 7.37206 23.1108 7.54411 23.1108C7.61934 23.1108 7.68896 23.0867 7.74658 23.0459L7.74578 23.0467L8.7045 22.356C8.79947 22.3864 8.8947 22.4155 8.9902 22.4432L9.40393 23.5502C9.45355 23.6838 9.57999 23.7767 9.72804 23.7767C9.82808 23.7767 9.91851 23.7343 9.98173 23.6654L10.79 22.7994C10.8868 22.8106 10.9853 22.8194 11.0837 22.829L11.7071 23.8367C11.7695 23.9352 11.8784 24 12.0016 24C12.1248 24 12.2337 23.9352 12.2953 23.8375L12.2961 23.8359L12.9195 22.8282C13.0179 22.8194 13.1156 22.8098 13.2132 22.7986L14.0199 23.6646C14.0831 23.7319 14.1735 23.7735 14.2728 23.7735C14.42 23.7735 14.5464 23.6814 14.5977 23.5518L14.5985 23.5494L15.0122 22.4424C15.1077 22.4152 15.2029 22.3861 15.2979 22.3552L16.2566 23.0459C16.3126 23.0875 16.3839 23.1124 16.4599 23.1124C16.6319 23.1124 16.7752 22.9859 16.8008 22.821V22.8194L16.9913 21.6532C17.0793 21.6076 17.1665 21.5604 17.2538 21.5124L18.3301 22.0022C18.3717 22.0214 18.4213 22.0326 18.4734 22.0326C18.6654 22.0326 18.8207 21.8773 18.8207 21.6852C18.8207 21.6812 18.8207 21.678 18.8207 21.674L18.7791 20.4902C18.8559 20.4299 18.9314 20.3678 19.0055 20.3038L20.1587 20.5751C20.1827 20.5807 20.2099 20.5839 20.2371 20.5839C20.4292 20.5839 20.5845 20.4286 20.5845 20.2365C20.5845 20.2085 20.5813 20.1821 20.5749 20.1565L20.5757 20.1589L20.3044 19.0047C20.3668 18.9295 20.43 18.8542 20.4908 18.7766L21.6752 18.8182C21.68 18.8182 21.6856 18.8182 21.6912 18.8182C21.8817 18.8182 22.0353 18.6637 22.0353 18.474C22.0353 18.4212 22.0233 18.3708 22.0017 18.326L22.0025 18.3284L21.5128 17.2518C21.56 17.1646 21.608 17.0773 21.6536 16.9893L22.8196 16.7996C22.9853 16.7708 23.1093 16.6275 23.1093 16.4562C23.1093 16.381 23.0853 16.3106 23.0445 16.2537L23.0453 16.2545L22.3547 15.2956L22.4419 15.0099L23.5486 14.5961C23.6815 14.5457 23.7743 14.4192 23.7743 14.2711C23.7743 14.1711 23.7319 14.0806 23.6639 14.0174L22.798 13.209C22.8084 13.1122 22.818 13.0137 22.826 12.9153L23.8335 12.2917C23.9336 12.2301 24 12.1213 24 11.9972C24 11.8731 23.9344 11.7643 23.8351 11.7035L23.8335 11.7027H23.8415Z" fill="#EEEFF1"/>
</svg>
