<svg width="24" height="24" viewBox="0 0 24 24" fill="none" xmlns="http://www.w3.org/2000/svg">
<g clip-path="url(#clip0_2170_32855)">
<path d="M11.9999 1.27271C14.8932 1.27271 17.668 2.42205 19.7138 4.4679C21.7597 6.51376 22.909 9.28853 22.909 12.1818C22.909 15.0751 21.7597 17.8498 19.7138 19.8957C17.668 21.9415 14.8932 23.0909 11.9999 23.0909C9.10664 23.0909 6.33187 21.9415 4.28602 19.8957C2.24017 17.8498 1.09082 15.0751 1.09082 12.1818C1.09082 9.28853 2.24017 6.51376 4.28602 4.4679C6.33187 2.42205 9.10664 1.27271 11.9999 1.27271Z" fill="url(#paint0_linear_2170_32855)"/>
<path d="M11.9999 1.27271C9.10664 1.27271 6.33187 2.42205 4.28602 4.4679C2.24017 6.51376 1.09082 9.28853 1.09082 12.1818C1.09082 15.0751 2.24017 17.8498 4.28602 19.8957C6.33187 21.9415 9.10664 23.0909 11.9999 23.0909V1.27271Z" fill="url(#paint1_linear_2170_32855)"/>
<path d="M22.909 11.8182C22.909 13.2508 22.6268 14.6694 22.0786 15.9929C21.5304 17.3165 20.7268 18.5191 19.7138 19.5321C18.7008 20.5451 17.4982 21.3487 16.1746 21.8969C14.8511 22.4451 13.4325 22.7273 11.9999 22.7273C10.5673 22.7273 9.14873 22.4451 7.82518 21.8969C6.50163 21.3487 5.29902 20.5451 4.28602 19.5321C3.27302 18.5191 2.46946 17.3165 1.92123 15.9929C1.37299 14.6694 1.09082 13.2508 1.09082 11.8182C1.09082 8.92494 2.24017 6.15017 4.28602 4.10432C6.33187 2.05847 9.10664 0.909119 11.9999 0.909119C14.8932 0.909119 17.668 2.05847 19.7138 4.10432C21.7597 6.15017 22.909 8.92494 22.909 11.8182Z" fill="#40A1C8"/>
<path d="M5.45446 12C5.44464 14.3939 5.92737 16.7642 6.87264 18.9636C6.21188 19.2932 5.60989 19.7294 5.09082 20.2545C3.86477 19.2516 2.87186 17.9936 2.18109 16.5681C1.49032 15.1426 1.11828 13.5838 1.09082 12H5.45446Z" fill="#49BBB0"/>
<path d="M12.0003 17.8182V22.7273C11.1821 22.7273 10.364 22.6364 9.56396 22.4545C8.37279 21.543 7.44434 20.3323 6.87305 18.9455C8.47182 18.1778 10.227 17.7919 12.0003 17.8182Z" fill="#378BDE"/>
<path d="M18.5451 12C18.5549 14.3939 18.0722 16.7642 17.127 18.9636C17.7877 19.2932 18.3897 19.7294 18.9088 20.2545C20.1348 19.2516 21.1277 17.9936 21.8185 16.5681C22.5093 15.1426 22.8813 13.5838 22.9088 12H18.5451Z" fill="#266EC6"/>
<path d="M12 12V22.7273C12.8182 22.7273 13.6364 22.6364 14.4364 22.4545C16.8727 20.7273 18.5091 16.6182 18.5455 12H12Z" fill="#378BDE"/>
<path d="M12 17.8182V22.7273C12.8182 22.7273 13.6364 22.6364 14.4364 22.4545C15.4909 21.7273 16.4182 20.5091 17.1273 18.9455C15.5285 18.1778 13.7733 17.7919 12 17.8182Z" fill="#266EC6"/>
<path d="M17.1274 18.9636C16.4002 20.5091 15.4911 21.7091 14.4365 22.4545C16.0756 22.0816 17.6064 21.3349 18.9093 20.2727C18.3962 19.7357 17.7932 19.2927 17.1274 18.9636Z" fill="#1E62B5"/>
<path d="M12.0005 0.909119C10.5524 0.908918 9.11884 1.197 7.78329 1.75657C6.44775 2.31614 5.23697 3.13599 4.22156 4.16833C3.20614 5.20067 2.40641 6.42483 1.86899 7.76944C1.33157 9.11405 1.06723 10.5522 1.09136 12H12.0005V0.909119Z" fill="#53D795"/>
<path d="M9.56355 1.18182C7.92445 1.55478 6.39372 2.30148 5.09082 3.36364C5.60382 3.90063 6.20686 4.34368 6.87264 4.67273C7.59991 3.12728 8.509 1.92728 9.56355 1.18182Z" fill="#72E99A"/>
<path d="M11.9996 0.909119C11.1814 0.909119 10.3632 1.00003 9.56319 1.18185C7.09046 2.9273 5.4541 7.1273 5.4541 11.8182V12H11.9996V0.909119Z" fill="#49BBB0"/>
<path d="M12.0003 0.909119C11.1821 0.909119 10.364 1.00003 9.56396 1.18185C8.37341 2.09396 7.44509 3.30453 6.87305 4.69094C8.47182 5.45856 10.227 5.84445 12.0003 5.81821V0.909119Z" fill="#53D795"/>
<path d="M12 0.909119C13.448 0.908918 14.8816 1.197 16.2172 1.75657C17.5527 2.31614 18.7635 3.13599 19.7789 4.16833C20.7943 5.20067 21.594 6.42483 22.1315 7.76944C22.6689 9.11405 22.9332 10.5522 22.9091 12H12V0.909119Z" fill="#378BDE"/>
<path d="M14.4365 1.18182C16.0756 1.55478 17.6064 2.30148 18.9093 3.36364C18.3962 3.90063 17.7932 4.34368 17.1274 4.67273C16.4002 3.12728 15.4911 1.92728 14.4365 1.18182Z" fill="#40A1C8"/>
<path d="M12 0.909119C12.8182 0.909119 13.6364 1.00003 14.4364 1.18185C16.9091 2.9273 18.5455 7.1273 18.5455 11.8182V12H12V0.909119Z" fill="#40A1C8"/>
<path d="M12 0.909119C12.8182 0.909119 13.6364 1.00003 14.4364 1.18185C15.4909 1.90912 16.4182 3.1273 17.1273 4.67276C15.6727 5.40003 13.8545 5.81821 12 5.81821V0.909119Z" fill="#49BBB0"/>
</g>
<defs>
<linearGradient id="paint0_linear_2170_32855" x1="18.1817" y1="20.7273" x2="19.9999" y2="20.7273" gradientUnits="userSpaceOnUse">
<stop stop-color="#16529C"/>
<stop offset="1" stop-color="#236AC0"/>
</linearGradient>
<linearGradient id="paint1_linear_2170_32855" x1="10.909" y1="22.1818" x2="2.909" y2="22.1818" gradientUnits="userSpaceOnUse">
<stop stop-color="#2166BB"/>
<stop offset="1" stop-color="#89EDA9"/>
</linearGradient>
<clipPath id="clip0_2170_32855">
<rect width="24" height="24" fill="white"/>
</clipPath>
</defs>
</svg>
